<?xml version="1.0" standalone="no"?>
<!DOCTYPE svg PUBLIC "-//W3C//DTD SVG 20010904//EN"
 "http://www.w3.org/TR/2001/REC-SVG-20010904/DTD/svg10.dtd">
<svg version="1.0" xmlns="http://www.w3.org/2000/svg"
 width="178.000000pt" height="178.000000pt" viewBox="0 0 178.000000 178.000000"
 preserveAspectRatio="xMidYMid meet">
<metadata>
Created by potrace 1.14, written by Peter Selinger 2001-2017
</metadata>
<g transform="translate(0.000000,178.000000) scale(0.100000,-0.100000)"
fill="#000000" stroke="none">
<path d="M770 1773 c-129 -21 -276 -78 -378 -145 -79 -52 -223 -206 -269 -289
-51 -90 -91 -198 -109 -299 -15 -86 -12 -258 6 -340 47 -210 176 -405 347
-529 83 -60 213 -122 282 -136 9 -1 36 -8 61 -15 79 -22 255 -21 355 0 111 25
143 36 233 82 212 109 364 290 441 526 30 93 35 134 35 272 -2 420 -277 758
-699 860 -49 12 -257 21 -305 13z"/>
</g>
</svg>
